<mxfile host="app.diagrams.net" agent="Mozilla/5.0 (Windows NT 10.0; Win64; x64) AppleWebKit/537.36 (KHTML, like Gecko) Chrome/138.0.0.0 Safari/537.36" version="28.0.6">
  <diagram name="Gambaran Umum" id="e7e014a7-5840-1c2e-5031-d8a46d1fe8dd">
    <mxGraphModel dx="772" dy="1216" grid="0" gridSize="10" guides="1" tooltips="1" connect="1" arrows="1" fold="1" page="1" pageScale="1" pageWidth="1169" pageHeight="826" background="none" math="0" shadow="0">
      <root>
        <mxCell id="0" />
        <mxCell id="1" parent="0" />
        <mxCell id="2" value="HRD, Admin Operasional" style="swimlane;whiteSpace=wrap" parent="1" vertex="1">
          <mxGeometry x="40" y="120" width="280" height="1100" as="geometry">
            <mxRectangle x="164.5" y="128" width="90" height="30" as="alternateBounds" />
          </mxGeometry>
        </mxCell>
        <mxCell id="5" value="" style="ellipse;shape=startState;fillColor=#000000;strokeColor=#000000;" parent="2" vertex="1">
          <mxGeometry x="125" y="42" width="30" height="30" as="geometry" />
        </mxCell>
        <mxCell id="21" value="Data Valid ?" style="rhombus;fillColor=#FFFFFF;strokeColor=#000000;" parent="2" vertex="1">
          <mxGeometry x="85" y="202" width="110" height="55" as="geometry" />
        </mxCell>
        <mxCell id="7" value="Memvalidasi Berkas" style="" parent="2" vertex="1">
          <mxGeometry x="60" y="112" width="160" height="50" as="geometry" />
        </mxCell>
        <mxCell id="RKCoc4Ff2t_dRbGgtJyt-48" style="edgeStyle=orthogonalEdgeStyle;rounded=0;orthogonalLoop=1;jettySize=auto;html=1;exitX=0.5;exitY=1;exitDx=0;exitDy=0;" parent="2" source="7" target="21" edge="1">
          <mxGeometry relative="1" as="geometry" />
        </mxCell>
        <mxCell id="6" value="" style="edgeStyle=elbowEdgeStyle;elbow=horizontal;verticalAlign=bottom;endArrow=open;endSize=8;strokeColor=#000000;endFill=1;rounded=0" parent="2" source="5" target="7" edge="1">
          <mxGeometry x="100" y="40" as="geometry">
            <mxPoint x="115" y="110" as="targetPoint" />
          </mxGeometry>
        </mxCell>
        <mxCell id="RKCoc4Ff2t_dRbGgtJyt-82" value="Proses&#xa;Administrasi&#xa;Karyawan" style="" parent="2" vertex="1">
          <mxGeometry x="85" y="863" width="110" height="50" as="geometry" />
        </mxCell>
        <mxCell id="YIHD0tMDVWa32eO57tJM-167" value="PengecekanÂ &#xa;Jawaban Psikotest" style="" parent="2" vertex="1">
          <mxGeometry x="85" y="772" width="110" height="50" as="geometry" />
        </mxCell>
        <mxCell id="YIHD0tMDVWa32eO57tJM-172" value="Review&#xa;Hasil Wawancara" style="" parent="2" vertex="1">
          <mxGeometry x="85" y="581" width="110" height="50" as="geometry" />
        </mxCell>
        <mxCell id="vegIoyeHo5Jib-Qd6CoS-21" value="Penyaringan&#xa;Calon Karyawan" style="" parent="2" vertex="1">
          <mxGeometry x="85" y="293" width="110" height="50" as="geometry" />
        </mxCell>
        <mxCell id="RKCoc4Ff2t_dRbGgtJyt-49" style="edgeStyle=orthogonalEdgeStyle;rounded=0;orthogonalLoop=1;jettySize=auto;html=1;entryX=0.5;entryY=0;entryDx=0;entryDy=0;" parent="2" source="21" target="vegIoyeHo5Jib-Qd6CoS-21" edge="1">
          <mxGeometry relative="1" as="geometry">
            <mxPoint x="140" y="310" as="targetPoint" />
            <mxPoint x="140" y="314" as="sourcePoint" />
          </mxGeometry>
        </mxCell>
        <mxCell id="RKCoc4Ff2t_dRbGgtJyt-101" value="Ya" style="edgeLabel;html=1;align=center;verticalAlign=middle;resizable=0;points=[];" parent="RKCoc4Ff2t_dRbGgtJyt-49" vertex="1" connectable="0">
          <mxGeometry x="-0.7389" y="-2" relative="1" as="geometry">
            <mxPoint x="17" as="offset" />
          </mxGeometry>
        </mxCell>
        <mxCell id="3" value="Calon Karyawan" style="swimlane;whiteSpace=wrap" parent="1" vertex="1">
          <mxGeometry x="320" y="120" width="295.5" height="1100" as="geometry" />
        </mxCell>
        <mxCell id="13" value="" style="ellipse;shape=startState;fillColor=#000000;strokeColor=#000000;" parent="3" vertex="1">
          <mxGeometry x="112.75" y="40" width="30" height="30" as="geometry" />
        </mxCell>
        <mxCell id="14" value="" style="edgeStyle=elbowEdgeStyle;elbow=vertical;verticalAlign=bottom;endArrow=open;endSize=8;strokeColor=#000000;endFill=1;rounded=0" parent="3" source="13" target="15" edge="1">
          <mxGeometry x="40" y="20" as="geometry">
            <mxPoint x="55" y="90" as="targetPoint" />
          </mxGeometry>
        </mxCell>
        <mxCell id="RKCoc4Ff2t_dRbGgtJyt-69" style="edgeStyle=orthogonalEdgeStyle;rounded=0;orthogonalLoop=1;jettySize=auto;html=1;exitX=0.5;exitY=1;exitDx=0;exitDy=0;" parent="3" source="RKCoc4Ff2t_dRbGgtJyt-57" target="RKCoc4Ff2t_dRbGgtJyt-66" edge="1">
          <mxGeometry relative="1" as="geometry" />
        </mxCell>
        <mxCell id="RKCoc4Ff2t_dRbGgtJyt-106" value="Ya" style="edgeLabel;html=1;align=center;verticalAlign=middle;resizable=0;points=[];" parent="RKCoc4Ff2t_dRbGgtJyt-69" vertex="1" connectable="0">
          <mxGeometry x="-0.2165" y="1" relative="1" as="geometry">
            <mxPoint x="12" y="1" as="offset" />
          </mxGeometry>
        </mxCell>
        <mxCell id="RKCoc4Ff2t_dRbGgtJyt-91" style="edgeStyle=orthogonalEdgeStyle;rounded=0;orthogonalLoop=1;jettySize=auto;html=1;exitX=1;exitY=0.5;exitDx=0;exitDy=0;entryX=0.63;entryY=0.374;entryDx=0;entryDy=0;entryPerimeter=0;" parent="3" source="RKCoc4Ff2t_dRbGgtJyt-57" target="RKCoc4Ff2t_dRbGgtJyt-73" edge="1">
          <mxGeometry relative="1" as="geometry">
            <mxPoint x="5.5" y="992" as="targetPoint" />
            <Array as="points">
              <mxPoint x="236" y="607" />
              <mxPoint x="236" y="1042" />
            </Array>
          </mxGeometry>
        </mxCell>
        <mxCell id="RKCoc4Ff2t_dRbGgtJyt-107" value="Tidak" style="edgeLabel;html=1;align=center;verticalAlign=middle;resizable=0;points=[];" parent="RKCoc4Ff2t_dRbGgtJyt-91" vertex="1" connectable="0">
          <mxGeometry x="-0.7847" relative="1" as="geometry">
            <mxPoint x="-21" y="-19" as="offset" />
          </mxGeometry>
        </mxCell>
        <mxCell id="RKCoc4Ff2t_dRbGgtJyt-71" style="edgeStyle=orthogonalEdgeStyle;rounded=0;orthogonalLoop=1;jettySize=auto;html=1;exitX=0.5;exitY=1;exitDx=0;exitDy=0;" parent="3" source="RKCoc4Ff2t_dRbGgtJyt-67" target="RKCoc4Ff2t_dRbGgtJyt-68" edge="1">
          <mxGeometry relative="1" as="geometry" />
        </mxCell>
        <mxCell id="RKCoc4Ff2t_dRbGgtJyt-108" value="Ya" style="edgeLabel;html=1;align=center;verticalAlign=middle;resizable=0;points=[];" parent="RKCoc4Ff2t_dRbGgtJyt-71" vertex="1" connectable="0">
          <mxGeometry x="-0.4744" y="-1" relative="1" as="geometry">
            <mxPoint x="14" as="offset" />
          </mxGeometry>
        </mxCell>
        <mxCell id="15" value="Mengirim Berkas&#xa;KTP dan CV&#xa;(Email atau Langsung)" style="" parent="3" vertex="1">
          <mxGeometry x="32.75" y="112" width="190" height="50" as="geometry" />
        </mxCell>
        <mxCell id="RKCoc4Ff2t_dRbGgtJyt-93" style="edgeStyle=orthogonalEdgeStyle;rounded=0;orthogonalLoop=1;jettySize=auto;html=1;exitX=1;exitY=0.5;exitDx=0;exitDy=0;entryX=0.293;entryY=0.48;entryDx=0;entryDy=0;entryPerimeter=0;" parent="3" source="RKCoc4Ff2t_dRbGgtJyt-67" target="RKCoc4Ff2t_dRbGgtJyt-73" edge="1">
          <mxGeometry relative="1" as="geometry">
            <mxPoint x="25.5" y="1072" as="targetPoint" />
            <Array as="points">
              <mxPoint x="216" y="797" />
              <mxPoint x="216" y="1022" />
            </Array>
          </mxGeometry>
        </mxCell>
        <mxCell id="RKCoc4Ff2t_dRbGgtJyt-109" value="Tidak" style="edgeLabel;html=1;align=center;verticalAlign=middle;resizable=0;points=[];" parent="RKCoc4Ff2t_dRbGgtJyt-93" vertex="1" connectable="0">
          <mxGeometry x="-0.9227" y="-1" relative="1" as="geometry">
            <mxPoint y="-18" as="offset" />
          </mxGeometry>
        </mxCell>
        <mxCell id="RKCoc4Ff2t_dRbGgtJyt-54" value="Pencatatan&#xa;Calon Karyawan" style="" parent="3" vertex="1">
          <mxGeometry x="-195" y="401.5" width="110" height="50" as="geometry" />
        </mxCell>
        <mxCell id="RKCoc4Ff2t_dRbGgtJyt-59" style="edgeStyle=orthogonalEdgeStyle;rounded=0;orthogonalLoop=1;jettySize=auto;html=1;exitX=1;exitY=0.5;exitDx=0;exitDy=0;" parent="3" source="RKCoc4Ff2t_dRbGgtJyt-54" target="RKCoc4Ff2t_dRbGgtJyt-56" edge="1">
          <mxGeometry relative="1" as="geometry">
            <mxPoint x="72.75" y="426.5" as="targetPoint" />
          </mxGeometry>
        </mxCell>
        <mxCell id="RKCoc4Ff2t_dRbGgtJyt-56" value="Wawancara" style="" parent="3" vertex="1">
          <mxGeometry x="72.75" y="499" width="110" height="50" as="geometry" />
        </mxCell>
        <mxCell id="RKCoc4Ff2t_dRbGgtJyt-57" value="Lulus ?" style="rhombus;fillColor=#FFFFFF;strokeColor=#000000;" parent="3" vertex="1">
          <mxGeometry x="72.75" y="579" width="110" height="55" as="geometry" />
        </mxCell>
        <mxCell id="RKCoc4Ff2t_dRbGgtJyt-66" value="Psikotest" style="" parent="3" vertex="1">
          <mxGeometry x="72.75" y="679" width="110" height="50" as="geometry" />
        </mxCell>
        <mxCell id="RKCoc4Ff2t_dRbGgtJyt-67" value="Lulus ?" style="rhombus;fillColor=#FFFFFF;strokeColor=#000000;" parent="3" vertex="1">
          <mxGeometry x="72.75" y="769" width="110" height="55" as="geometry" />
        </mxCell>
        <mxCell id="RKCoc4Ff2t_dRbGgtJyt-68" value="Menyerahkan&#xa;Berkas Administrasi" style="" parent="3" vertex="1">
          <mxGeometry x="72.75" y="859" width="110" height="58" as="geometry" />
        </mxCell>
        <mxCell id="RKCoc4Ff2t_dRbGgtJyt-41" value="" style="ellipse;html=1;shape=endState;fillColor=#000000;strokeColor=#000000;" parent="3" vertex="1">
          <mxGeometry x="-155" y="1027" width="30" height="30" as="geometry" />
        </mxCell>
        <mxCell id="RKCoc4Ff2t_dRbGgtJyt-100" style="edgeStyle=orthogonalEdgeStyle;rounded=0;orthogonalLoop=1;jettySize=auto;html=1;exitX=0.25;exitY=0.5;exitDx=0;exitDy=0;exitPerimeter=0;entryX=1;entryY=0.5;entryDx=0;entryDy=0;" parent="3" source="RKCoc4Ff2t_dRbGgtJyt-73" target="RKCoc4Ff2t_dRbGgtJyt-41" edge="1">
          <mxGeometry relative="1" as="geometry">
            <Array as="points">
              <mxPoint x="25" y="1042" />
            </Array>
          </mxGeometry>
        </mxCell>
        <mxCell id="RKCoc4Ff2t_dRbGgtJyt-73" value="" style="shape=line;strokeWidth=6;strokeColor=#000000;rotation=90" parent="3" vertex="1">
          <mxGeometry x="-5" y="1027" width="60" height="15" as="geometry" />
        </mxCell>
        <mxCell id="RKCoc4Ff2t_dRbGgtJyt-46" value="" style="endArrow=classic;html=1;rounded=0;exitX=0;exitY=0.5;exitDx=0;exitDy=0;" parent="1" source="15" target="7" edge="1">
          <mxGeometry width="50" height="50" relative="1" as="geometry">
            <mxPoint x="450" y="400" as="sourcePoint" />
            <mxPoint x="500" y="350" as="targetPoint" />
          </mxGeometry>
        </mxCell>
        <mxCell id="RKCoc4Ff2t_dRbGgtJyt-50" style="edgeStyle=orthogonalEdgeStyle;rounded=0;orthogonalLoop=1;jettySize=auto;html=1;exitX=0;exitY=0.5;exitDx=0;exitDy=0;entryX=0;entryY=0.5;entryDx=0;entryDy=0;" parent="1" source="21" target="RKCoc4Ff2t_dRbGgtJyt-41" edge="1">
          <mxGeometry relative="1" as="geometry" />
        </mxCell>
        <mxCell id="RKCoc4Ff2t_dRbGgtJyt-102" value="Tidak" style="edgeLabel;html=1;align=center;verticalAlign=middle;resizable=0;points=[];" parent="RKCoc4Ff2t_dRbGgtJyt-50" vertex="1" connectable="0">
          <mxGeometry x="-0.9344" relative="1" as="geometry">
            <mxPoint x="20" y="31" as="offset" />
          </mxGeometry>
        </mxCell>
        <mxCell id="RKCoc4Ff2t_dRbGgtJyt-86" style="edgeStyle=orthogonalEdgeStyle;rounded=0;orthogonalLoop=1;jettySize=auto;html=1;exitX=0;exitY=0.5;exitDx=0;exitDy=0;" parent="1" source="RKCoc4Ff2t_dRbGgtJyt-68" target="RKCoc4Ff2t_dRbGgtJyt-82" edge="1">
          <mxGeometry relative="1" as="geometry" />
        </mxCell>
        <mxCell id="YIHD0tMDVWa32eO57tJM-22" value="Analisis Sistem Berjalan" style="text;html=1;align=left;verticalAlign=middle;resizable=0;points=[];autosize=1;strokeColor=none;fillColor=none;fontSize=40;" parent="1" vertex="1">
          <mxGeometry x="40" y="25" width="450" height="60" as="geometry" />
        </mxCell>
        <mxCell id="YIHD0tMDVWa32eO57tJM-25" value="Sistem Yang Diusulkan" style="text;html=1;align=left;verticalAlign=middle;resizable=0;points=[];autosize=1;strokeColor=none;fillColor=none;fontSize=40;" parent="1" vertex="1">
          <mxGeometry x="1252" y="-146" width="430" height="60" as="geometry" />
        </mxCell>
        <mxCell id="YIHD0tMDVWa32eO57tJM-102" value="HRD, Admin Operasional" style="swimlane;whiteSpace=wrap" parent="1" vertex="1">
          <mxGeometry x="1270" y="2" width="280" height="2125" as="geometry">
            <mxRectangle x="164.5" y="128" width="90" height="30" as="alternateBounds" />
          </mxGeometry>
        </mxCell>
        <mxCell id="YIHD0tMDVWa32eO57tJM-129" value="Penyaringan&#xa;Calon Karyawan" style="" parent="YIHD0tMDVWa32eO57tJM-102" vertex="1">
          <mxGeometry x="85" y="861" width="110" height="50" as="geometry" />
        </mxCell>
        <mxCell id="YIHD0tMDVWa32eO57tJM-111" value="Aplikasi" style="swimlane;whiteSpace=wrap;startSize=23;fillColor=default;" parent="1" vertex="1">
          <mxGeometry x="1550" y="2" width="296" height="2125" as="geometry" />
        </mxCell>
        <mxCell id="YIHD0tMDVWa32eO57tJM-105" value="Validasi Berkas" style="" parent="YIHD0tMDVWa32eO57tJM-111" vertex="1">
          <mxGeometry x="67.75" y="120" width="160" height="50" as="geometry" />
        </mxCell>
        <mxCell id="jaqBcTecHECJfo1LTqMZ-30" style="edgeStyle=orthogonalEdgeStyle;rounded=0;orthogonalLoop=1;jettySize=auto;html=1;entryX=0.5;entryY=0;entryDx=0;entryDy=0;exitX=0.5;exitY=1;exitDx=0;exitDy=0;" parent="YIHD0tMDVWa32eO57tJM-111" source="YIHD0tMDVWa32eO57tJM-104" target="jaqBcTecHECJfo1LTqMZ-29" edge="1">
          <mxGeometry relative="1" as="geometry">
            <mxPoint x="148" y="290" as="sourcePoint" />
          </mxGeometry>
        </mxCell>
        <mxCell id="vegIoyeHo5Jib-Qd6CoS-25" value="Tidak" style="edgeLabel;html=1;align=center;verticalAlign=middle;resizable=0;points=[];" parent="jaqBcTecHECJfo1LTqMZ-30" vertex="1" connectable="0">
          <mxGeometry x="-0.5705" relative="1" as="geometry">
            <mxPoint x="22" y="2" as="offset" />
          </mxGeometry>
        </mxCell>
        <mxCell id="RHaWf_Yq4CW312gJQsgt-28" style="edgeStyle=orthogonalEdgeStyle;rounded=0;orthogonalLoop=1;jettySize=auto;html=1;entryX=0;entryY=0.5;entryDx=0;entryDy=0;exitX=0;exitY=0.5;exitDx=0;exitDy=0;" edge="1" parent="YIHD0tMDVWa32eO57tJM-111" source="YIHD0tMDVWa32eO57tJM-104" target="RHaWf_Yq4CW312gJQsgt-24">
          <mxGeometry relative="1" as="geometry">
            <Array as="points">
              <mxPoint x="27" y="256" />
              <mxPoint x="27" y="481" />
            </Array>
          </mxGeometry>
        </mxCell>
        <mxCell id="RHaWf_Yq4CW312gJQsgt-29" value="Ya" style="edgeLabel;html=1;align=center;verticalAlign=middle;resizable=0;points=[];" vertex="1" connectable="0" parent="RHaWf_Yq4CW312gJQsgt-28">
          <mxGeometry x="-0.8386" y="-1" relative="1" as="geometry">
            <mxPoint x="-3" y="-7" as="offset" />
          </mxGeometry>
        </mxCell>
        <mxCell id="YIHD0tMDVWa32eO57tJM-104" value="Berkas Valid ?" style="rhombus;fillColor=#FFFFFF;strokeColor=#000000;" parent="YIHD0tMDVWa32eO57tJM-111" vertex="1">
          <mxGeometry x="92.75" y="228" width="110" height="55" as="geometry" />
        </mxCell>
        <mxCell id="YIHD0tMDVWa32eO57tJM-106" style="edgeStyle=orthogonalEdgeStyle;rounded=0;orthogonalLoop=1;jettySize=auto;html=1;exitX=0.5;exitY=1;exitDx=0;exitDy=0;" parent="YIHD0tMDVWa32eO57tJM-111" source="YIHD0tMDVWa32eO57tJM-105" target="YIHD0tMDVWa32eO57tJM-104" edge="1">
          <mxGeometry relative="1" as="geometry" />
        </mxCell>
        <mxCell id="RHaWf_Yq4CW312gJQsgt-22" style="edgeStyle=orthogonalEdgeStyle;rounded=0;orthogonalLoop=1;jettySize=auto;html=1;" edge="1" parent="YIHD0tMDVWa32eO57tJM-111" source="YIHD0tMDVWa32eO57tJM-159" target="RHaWf_Yq4CW312gJQsgt-21">
          <mxGeometry relative="1" as="geometry" />
        </mxCell>
        <mxCell id="jaqBcTecHECJfo1LTqMZ-38" style="edgeStyle=orthogonalEdgeStyle;rounded=0;orthogonalLoop=1;jettySize=auto;html=1;exitX=0;exitY=0.5;exitDx=0;exitDy=0;entryX=0.5;entryY=0;entryDx=0;entryDy=0;" parent="YIHD0tMDVWa32eO57tJM-111" source="jaqBcTecHECJfo1LTqMZ-23" target="YIHD0tMDVWa32eO57tJM-108" edge="1">
          <mxGeometry relative="1" as="geometry" />
        </mxCell>
        <mxCell id="jaqBcTecHECJfo1LTqMZ-26" style="edgeStyle=orthogonalEdgeStyle;rounded=0;orthogonalLoop=1;jettySize=auto;html=1;exitX=0.5;exitY=1;exitDx=0;exitDy=0;entryX=0.5;entryY=0;entryDx=0;entryDy=0;" parent="YIHD0tMDVWa32eO57tJM-111" source="jaqBcTecHECJfo1LTqMZ-21" target="jaqBcTecHECJfo1LTqMZ-23" edge="1">
          <mxGeometry relative="1" as="geometry" />
        </mxCell>
        <mxCell id="jaqBcTecHECJfo1LTqMZ-29" value="Menampilkan pesan&#xa;&quot;Berkas tidak memenuhi syarat&quot;" style="" parent="YIHD0tMDVWa32eO57tJM-111" vertex="1">
          <mxGeometry x="52.75" y="348" width="190" height="50" as="geometry" />
        </mxCell>
        <mxCell id="jaqBcTecHECJfo1LTqMZ-48" style="edgeStyle=orthogonalEdgeStyle;rounded=0;orthogonalLoop=1;jettySize=auto;html=1;exitX=0.5;exitY=1;exitDx=0;exitDy=0;entryX=0.511;entryY=0.436;entryDx=0;entryDy=0;entryPerimeter=0;" parent="YIHD0tMDVWa32eO57tJM-111" source="jaqBcTecHECJfo1LTqMZ-22" target="jaqBcTecHECJfo1LTqMZ-51" edge="1">
          <mxGeometry relative="1" as="geometry">
            <mxPoint x="148.73333333333312" y="1532" as="targetPoint" />
          </mxGeometry>
        </mxCell>
        <mxCell id="jaqBcTecHECJfo1LTqMZ-43" style="edgeStyle=orthogonalEdgeStyle;rounded=0;orthogonalLoop=1;jettySize=auto;html=1;exitX=1;exitY=0.5;exitDx=0;exitDy=0;entryX=0;entryY=0.5;entryDx=0;entryDy=0;" parent="YIHD0tMDVWa32eO57tJM-111" source="YIHD0tMDVWa32eO57tJM-108" target="jaqBcTecHECJfo1LTqMZ-39" edge="1">
          <mxGeometry relative="1" as="geometry" />
        </mxCell>
        <mxCell id="jaqBcTecHECJfo1LTqMZ-45" style="edgeStyle=orthogonalEdgeStyle;rounded=0;orthogonalLoop=1;jettySize=auto;html=1;exitX=0.5;exitY=1;exitDx=0;exitDy=0;" parent="YIHD0tMDVWa32eO57tJM-111" source="jaqBcTecHECJfo1LTqMZ-28" target="jaqBcTecHECJfo1LTqMZ-22" edge="1">
          <mxGeometry relative="1" as="geometry" />
        </mxCell>
        <mxCell id="jaqBcTecHECJfo1LTqMZ-41" style="edgeStyle=orthogonalEdgeStyle;rounded=0;orthogonalLoop=1;jettySize=auto;html=1;exitX=0.5;exitY=1;exitDx=0;exitDy=0;" parent="YIHD0tMDVWa32eO57tJM-111" source="jaqBcTecHECJfo1LTqMZ-39" target="jaqBcTecHECJfo1LTqMZ-28" edge="1">
          <mxGeometry relative="1" as="geometry" />
        </mxCell>
        <mxCell id="vegIoyeHo5Jib-Qd6CoS-28" value="Ya" style="edgeLabel;html=1;align=center;verticalAlign=middle;resizable=0;points=[];" parent="jaqBcTecHECJfo1LTqMZ-41" vertex="1" connectable="0">
          <mxGeometry x="-0.1149" y="3" relative="1" as="geometry">
            <mxPoint x="9" y="-1" as="offset" />
          </mxGeometry>
        </mxCell>
        <mxCell id="jaqBcTecHECJfo1LTqMZ-50" style="rounded=0;orthogonalLoop=1;jettySize=auto;html=1;exitX=1;exitY=0.5;exitDx=0;exitDy=0;entryX=0.75;entryY=0.5;entryDx=0;entryDy=0;entryPerimeter=0;edgeStyle=orthogonalEdgeStyle;" parent="YIHD0tMDVWa32eO57tJM-111" source="jaqBcTecHECJfo1LTqMZ-39" target="jaqBcTecHECJfo1LTqMZ-51" edge="1">
          <mxGeometry relative="1" as="geometry">
            <mxPoint x="221" y="1642" as="targetPoint" />
            <Array as="points">
              <mxPoint x="268" y="1643" />
              <mxPoint x="268" y="1952" />
              <mxPoint x="166" y="1952" />
            </Array>
          </mxGeometry>
        </mxCell>
        <mxCell id="vegIoyeHo5Jib-Qd6CoS-29" value="Tidak" style="edgeLabel;html=1;align=center;verticalAlign=middle;resizable=0;points=[];" parent="jaqBcTecHECJfo1LTqMZ-50" vertex="1" connectable="0">
          <mxGeometry x="-0.9104" y="2" relative="1" as="geometry">
            <mxPoint x="3" y="-13" as="offset" />
          </mxGeometry>
        </mxCell>
        <mxCell id="jaqBcTecHECJfo1LTqMZ-53" style="edgeStyle=orthogonalEdgeStyle;rounded=0;orthogonalLoop=1;jettySize=auto;html=1;exitX=0.25;exitY=0.5;exitDx=0;exitDy=0;exitPerimeter=0;entryX=0.5;entryY=0;entryDx=0;entryDy=0;" parent="YIHD0tMDVWa32eO57tJM-111" source="jaqBcTecHECJfo1LTqMZ-51" target="YIHD0tMDVWa32eO57tJM-137" edge="1">
          <mxGeometry relative="1" as="geometry" />
        </mxCell>
        <mxCell id="RHaWf_Yq4CW312gJQsgt-23" style="edgeStyle=orthogonalEdgeStyle;rounded=0;orthogonalLoop=1;jettySize=auto;html=1;" edge="1" parent="YIHD0tMDVWa32eO57tJM-111" source="RHaWf_Yq4CW312gJQsgt-21" target="jaqBcTecHECJfo1LTqMZ-21">
          <mxGeometry relative="1" as="geometry" />
        </mxCell>
        <mxCell id="YIHD0tMDVWa32eO57tJM-126" value="Menandai data kandidatÂ &#xa;dengan status TERPILIH" style="" parent="YIHD0tMDVWa32eO57tJM-111" vertex="1">
          <mxGeometry x="55.75" y="984" width="190" height="50" as="geometry" />
        </mxCell>
        <mxCell id="YIHD0tMDVWa32eO57tJM-147" value="Wawancara&#xa;(Manual)" style="" parent="YIHD0tMDVWa32eO57tJM-111" vertex="1">
          <mxGeometry x="401.25" y="984" width="110" height="50" as="geometry" />
        </mxCell>
        <mxCell id="YIHD0tMDVWa32eO57tJM-156" value="Lolos ?" style="rhombus;fillColor=#FFFFFF;strokeColor=#000000;" parent="YIHD0tMDVWa32eO57tJM-111" vertex="1">
          <mxGeometry x="401.25" y="1074" width="110" height="55" as="geometry" />
        </mxCell>
        <mxCell id="YIHD0tMDVWa32eO57tJM-155" value="Psikotest&#xa;(Manual)" style="" parent="YIHD0tMDVWa32eO57tJM-111" vertex="1">
          <mxGeometry x="401.25" y="1164" width="110" height="50" as="geometry" />
        </mxCell>
        <mxCell id="YIHD0tMDVWa32eO57tJM-157" value="Upload Jawaban Psikotest" style="" parent="YIHD0tMDVWa32eO57tJM-111" vertex="1">
          <mxGeometry x="-214.5" y="1164" width="155" height="50" as="geometry" />
        </mxCell>
        <mxCell id="YIHD0tMDVWa32eO57tJM-159" value="Melakukan pemindaian fileÂ &#xa;LJK Psikotest dengan OCR" style="" parent="YIHD0tMDVWa32eO57tJM-111" vertex="1">
          <mxGeometry x="47.129999999999995" y="1244" width="207.25" height="50" as="geometry" />
        </mxCell>
        <mxCell id="YIHD0tMDVWa32eO57tJM-154" style="edgeStyle=orthogonalEdgeStyle;rounded=0;orthogonalLoop=1;jettySize=auto;html=1;exitX=1;exitY=0.5;exitDx=0;exitDy=0;entryX=0;entryY=0.5;entryDx=0;entryDy=0;" parent="YIHD0tMDVWa32eO57tJM-111" source="YIHD0tMDVWa32eO57tJM-126" target="YIHD0tMDVWa32eO57tJM-147" edge="1">
          <mxGeometry relative="1" as="geometry" />
        </mxCell>
        <mxCell id="RHaWf_Yq4CW312gJQsgt-21" value="Mencocokan jawaban psikotest&#xa;dengan kunci jawaban pada soal" style="" vertex="1" parent="YIHD0tMDVWa32eO57tJM-111">
          <mxGeometry x="47.12" y="1335" width="207.25" height="50" as="geometry" />
        </mxCell>
        <mxCell id="jaqBcTecHECJfo1LTqMZ-47" style="edgeStyle=orthogonalEdgeStyle;rounded=0;orthogonalLoop=1;jettySize=auto;html=1;exitX=1;exitY=0.5;exitDx=0;exitDy=0;entryX=1;entryY=0.5;entryDx=0;entryDy=0;" parent="YIHD0tMDVWa32eO57tJM-111" source="YIHD0tMDVWa32eO57tJM-156" target="YIHD0tMDVWa32eO57tJM-137" edge="1">
          <mxGeometry relative="1" as="geometry" />
        </mxCell>
        <mxCell id="vegIoyeHo5Jib-Qd6CoS-27" value="Tidak" style="edgeLabel;html=1;align=center;verticalAlign=middle;resizable=0;points=[];" parent="jaqBcTecHECJfo1LTqMZ-47" vertex="1" connectable="0">
          <mxGeometry x="-0.9476" y="-1" relative="1" as="geometry">
            <mxPoint x="23" y="2" as="offset" />
          </mxGeometry>
        </mxCell>
        <mxCell id="jaqBcTecHECJfo1LTqMZ-21" value="Menampilkan hasil psikotest" style="" parent="YIHD0tMDVWa32eO57tJM-111" vertex="1">
          <mxGeometry x="47.12" y="1426" width="207.25" height="50" as="geometry" />
        </mxCell>
        <mxCell id="YIHD0tMDVWa32eO57tJM-161" style="edgeStyle=orthogonalEdgeStyle;rounded=0;orthogonalLoop=1;jettySize=auto;html=1;exitX=0.5;exitY=1;exitDx=0;exitDy=0;" parent="YIHD0tMDVWa32eO57tJM-111" source="YIHD0tMDVWa32eO57tJM-147" target="YIHD0tMDVWa32eO57tJM-156" edge="1">
          <mxGeometry relative="1" as="geometry" />
        </mxCell>
        <mxCell id="jaqBcTecHECJfo1LTqMZ-23" value="Menampilkan semua kandidat&#xa;berdasarkan Nilai terbesar" style="" parent="YIHD0tMDVWa32eO57tJM-111" vertex="1">
          <mxGeometry x="47.129999999999995" y="1518" width="207.25" height="50" as="geometry" />
        </mxCell>
        <mxCell id="YIHD0tMDVWa32eO57tJM-160" style="edgeStyle=orthogonalEdgeStyle;rounded=0;orthogonalLoop=1;jettySize=auto;html=1;exitX=0.5;exitY=1;exitDx=0;exitDy=0;" parent="YIHD0tMDVWa32eO57tJM-111" source="YIHD0tMDVWa32eO57tJM-156" target="YIHD0tMDVWa32eO57tJM-155" edge="1">
          <mxGeometry relative="1" as="geometry" />
        </mxCell>
        <mxCell id="vegIoyeHo5Jib-Qd6CoS-26" value="Ya" style="edgeLabel;html=1;align=center;verticalAlign=middle;resizable=0;points=[];" parent="YIHD0tMDVWa32eO57tJM-160" vertex="1" connectable="0">
          <mxGeometry x="-0.5513" y="1" relative="1" as="geometry">
            <mxPoint x="16" y="4" as="offset" />
          </mxGeometry>
        </mxCell>
        <mxCell id="YIHD0tMDVWa32eO57tJM-108" value="Menetapkan Status&#xa;Kelulusan Calon Karyawan" style="" parent="YIHD0tMDVWa32eO57tJM-111" vertex="1">
          <mxGeometry x="-227" y="1618" width="162.5" height="50" as="geometry" />
        </mxCell>
        <mxCell id="YIHD0tMDVWa32eO57tJM-162" style="edgeStyle=orthogonalEdgeStyle;rounded=0;orthogonalLoop=1;jettySize=auto;html=1;exitX=0;exitY=0.5;exitDx=0;exitDy=0;" parent="YIHD0tMDVWa32eO57tJM-111" source="YIHD0tMDVWa32eO57tJM-155" target="YIHD0tMDVWa32eO57tJM-157" edge="1">
          <mxGeometry relative="1" as="geometry" />
        </mxCell>
        <mxCell id="jaqBcTecHECJfo1LTqMZ-39" value="Kandidat Lulus ?" style="rhombus;fillColor=#FFFFFF;strokeColor=#000000;" parent="YIHD0tMDVWa32eO57tJM-111" vertex="1">
          <mxGeometry x="95.76" y="1616" width="110" height="54.5" as="geometry" />
        </mxCell>
        <mxCell id="YIHD0tMDVWa32eO57tJM-163" style="edgeStyle=orthogonalEdgeStyle;rounded=0;orthogonalLoop=1;jettySize=auto;html=1;exitX=0.5;exitY=1;exitDx=0;exitDy=0;entryX=0;entryY=0.5;entryDx=0;entryDy=0;" parent="YIHD0tMDVWa32eO57tJM-111" source="YIHD0tMDVWa32eO57tJM-157" target="YIHD0tMDVWa32eO57tJM-159" edge="1">
          <mxGeometry relative="1" as="geometry" />
        </mxCell>
        <mxCell id="jaqBcTecHECJfo1LTqMZ-28" value="Mengubah Status Kandidat&#xa;menjadi Lulus" style="" parent="YIHD0tMDVWa32eO57tJM-111" vertex="1">
          <mxGeometry x="47.13" y="1717" width="207.25" height="50" as="geometry" />
        </mxCell>
        <mxCell id="jaqBcTecHECJfo1LTqMZ-22" value="Menampilkan Status Akhir&#xa;Calon Karyawan" style="" parent="YIHD0tMDVWa32eO57tJM-111" vertex="1">
          <mxGeometry x="47.129999999999995" y="1818" width="207.25" height="50" as="geometry" />
        </mxCell>
        <mxCell id="jaqBcTecHECJfo1LTqMZ-51" value="" style="shape=line;strokeWidth=6;strokeColor=#000000;rotation=0;" parent="YIHD0tMDVWa32eO57tJM-111" vertex="1">
          <mxGeometry x="120.75" y="1984" width="60" height="15" as="geometry" />
        </mxCell>
        <mxCell id="YIHD0tMDVWa32eO57tJM-137" value="" style="ellipse;html=1;shape=endState;fillColor=#000000;strokeColor=#000000;" parent="YIHD0tMDVWa32eO57tJM-111" vertex="1">
          <mxGeometry x="135.75" y="2024" width="30" height="30" as="geometry" />
        </mxCell>
        <mxCell id="RHaWf_Yq4CW312gJQsgt-30" style="edgeStyle=orthogonalEdgeStyle;rounded=0;orthogonalLoop=1;jettySize=auto;html=1;" edge="1" parent="YIHD0tMDVWa32eO57tJM-111" source="RHaWf_Yq4CW312gJQsgt-24" target="RHaWf_Yq4CW312gJQsgt-26">
          <mxGeometry relative="1" as="geometry" />
        </mxCell>
        <mxCell id="RHaWf_Yq4CW312gJQsgt-24" value="Pemindaian File KTP dengan OCR" style="" vertex="1" parent="YIHD0tMDVWa32eO57tJM-111">
          <mxGeometry x="47.129999999999995" y="456" width="201.24" height="50" as="geometry" />
        </mxCell>
        <mxCell id="RHaWf_Yq4CW312gJQsgt-25" value="Menampilkan data hasil ekstraksi KTP&#xa;ke form input" style="" vertex="1" parent="YIHD0tMDVWa32eO57tJM-111">
          <mxGeometry x="39.82" y="736" width="215.87" height="50" as="geometry" />
        </mxCell>
        <mxCell id="RHaWf_Yq4CW312gJQsgt-33" style="edgeStyle=orthogonalEdgeStyle;rounded=0;orthogonalLoop=1;jettySize=auto;html=1;" edge="1" parent="YIHD0tMDVWa32eO57tJM-111" source="RHaWf_Yq4CW312gJQsgt-26" target="RHaWf_Yq4CW312gJQsgt-31">
          <mxGeometry relative="1" as="geometry" />
        </mxCell>
        <mxCell id="RHaWf_Yq4CW312gJQsgt-36" style="edgeStyle=orthogonalEdgeStyle;rounded=0;orthogonalLoop=1;jettySize=auto;html=1;entryX=0;entryY=0.5;entryDx=0;entryDy=0;" edge="1" parent="YIHD0tMDVWa32eO57tJM-111" source="RHaWf_Yq4CW312gJQsgt-26" target="RHaWf_Yq4CW312gJQsgt-25">
          <mxGeometry relative="1" as="geometry">
            <Array as="points">
              <mxPoint x="20" y="579" />
              <mxPoint x="20" y="761" />
            </Array>
          </mxGeometry>
        </mxCell>
        <mxCell id="RHaWf_Yq4CW312gJQsgt-26" value="Berhasil ?" style="rhombus;fillColor=#FFFFFF;strokeColor=#000000;" vertex="1" parent="YIHD0tMDVWa32eO57tJM-111">
          <mxGeometry x="92.75" y="551" width="110" height="55" as="geometry" />
        </mxCell>
        <mxCell id="RHaWf_Yq4CW312gJQsgt-31" value="Menampilkan pesan&#xa;&quot;KTP tidak terbaca oleh sistem&quot;" style="" vertex="1" parent="YIHD0tMDVWa32eO57tJM-111">
          <mxGeometry x="39.81" y="647" width="215.87" height="50" as="geometry" />
        </mxCell>
        <mxCell id="RHaWf_Yq4CW312gJQsgt-39" value="Menyimpan Data Lamaran" style="" vertex="1" parent="YIHD0tMDVWa32eO57tJM-111">
          <mxGeometry x="40.50999999999999" y="861" width="215.87" height="50" as="geometry" />
        </mxCell>
        <mxCell id="YIHD0tMDVWa32eO57tJM-143" value="Calon Karyawan" style="swimlane;whiteSpace=wrap" parent="1" vertex="1">
          <mxGeometry x="1845.5" y="2" width="295.5" height="2125" as="geometry" />
        </mxCell>
        <mxCell id="YIHD0tMDVWa32eO57tJM-144" value="" style="ellipse;shape=startState;fillColor=#000000;strokeColor=#000000;" parent="YIHD0tMDVWa32eO57tJM-143" vertex="1">
          <mxGeometry x="132.75" y="40" width="30" height="30" as="geometry" />
        </mxCell>
        <mxCell id="YIHD0tMDVWa32eO57tJM-145" value="" style="edgeStyle=elbowEdgeStyle;elbow=horizontal;verticalAlign=bottom;endArrow=open;endSize=8;strokeColor=#000000;endFill=1;rounded=0" parent="YIHD0tMDVWa32eO57tJM-143" source="YIHD0tMDVWa32eO57tJM-144" target="YIHD0tMDVWa32eO57tJM-146" edge="1">
          <mxGeometry x="40" y="20" as="geometry">
            <mxPoint x="55" y="90" as="targetPoint" />
          </mxGeometry>
        </mxCell>
        <mxCell id="YIHD0tMDVWa32eO57tJM-146" value="Upload Berkas&#xa;KTP dan CV" style="" parent="YIHD0tMDVWa32eO57tJM-143" vertex="1">
          <mxGeometry x="52.75" y="120" width="190" height="50" as="geometry" />
        </mxCell>
        <mxCell id="RHaWf_Yq4CW312gJQsgt-41" style="edgeStyle=orthogonalEdgeStyle;rounded=0;orthogonalLoop=1;jettySize=auto;html=1;" edge="1" parent="YIHD0tMDVWa32eO57tJM-143" source="RHaWf_Yq4CW312gJQsgt-32" target="RHaWf_Yq4CW312gJQsgt-38">
          <mxGeometry relative="1" as="geometry" />
        </mxCell>
        <mxCell id="RHaWf_Yq4CW312gJQsgt-32" value="Validasi data dan melengkapi data" style="" vertex="1" parent="YIHD0tMDVWa32eO57tJM-143">
          <mxGeometry x="39.82" y="736" width="215.87" height="50" as="geometry" />
        </mxCell>
        <mxCell id="RHaWf_Yq4CW312gJQsgt-38" value="Kirim Lamaran" style="" vertex="1" parent="YIHD0tMDVWa32eO57tJM-143">
          <mxGeometry x="39.82" y="861" width="215.87" height="50" as="geometry" />
        </mxCell>
        <mxCell id="YIHD0tMDVWa32eO57tJM-149" style="edgeStyle=orthogonalEdgeStyle;rounded=0;orthogonalLoop=1;jettySize=auto;html=1;exitX=0;exitY=0.5;exitDx=0;exitDy=0;" parent="1" source="YIHD0tMDVWa32eO57tJM-146" target="YIHD0tMDVWa32eO57tJM-105" edge="1">
          <mxGeometry relative="1" as="geometry" />
        </mxCell>
        <mxCell id="YIHD0tMDVWa32eO57tJM-168" style="edgeStyle=orthogonalEdgeStyle;rounded=0;orthogonalLoop=1;jettySize=auto;html=1;exitX=0;exitY=0.5;exitDx=0;exitDy=0;" parent="1" source="RKCoc4Ff2t_dRbGgtJyt-66" target="YIHD0tMDVWa32eO57tJM-167" edge="1">
          <mxGeometry relative="1" as="geometry" />
        </mxCell>
        <mxCell id="YIHD0tMDVWa32eO57tJM-171" style="edgeStyle=orthogonalEdgeStyle;rounded=0;orthogonalLoop=1;jettySize=auto;html=1;exitX=1;exitY=0.5;exitDx=0;exitDy=0;entryX=0.063;entryY=0.506;entryDx=0;entryDy=0;entryPerimeter=0;" parent="1" source="YIHD0tMDVWa32eO57tJM-167" target="RKCoc4Ff2t_dRbGgtJyt-67" edge="1">
          <mxGeometry relative="1" as="geometry" />
        </mxCell>
        <mxCell id="YIHD0tMDVWa32eO57tJM-174" style="edgeStyle=orthogonalEdgeStyle;rounded=0;orthogonalLoop=1;jettySize=auto;html=1;exitX=0;exitY=0.5;exitDx=0;exitDy=0;" parent="1" source="RKCoc4Ff2t_dRbGgtJyt-56" target="YIHD0tMDVWa32eO57tJM-172" edge="1">
          <mxGeometry relative="1" as="geometry" />
        </mxCell>
        <mxCell id="YIHD0tMDVWa32eO57tJM-175" style="edgeStyle=orthogonalEdgeStyle;rounded=0;orthogonalLoop=1;jettySize=auto;html=1;exitX=1;exitY=0.5;exitDx=0;exitDy=0;entryX=0;entryY=0.5;entryDx=0;entryDy=0;" parent="1" source="YIHD0tMDVWa32eO57tJM-172" target="RKCoc4Ff2t_dRbGgtJyt-57" edge="1">
          <mxGeometry relative="1" as="geometry" />
        </mxCell>
        <mxCell id="RKCoc4Ff2t_dRbGgtJyt-87" style="edgeStyle=orthogonalEdgeStyle;rounded=0;orthogonalLoop=1;jettySize=auto;html=1;exitX=0.5;exitY=1;exitDx=0;exitDy=0;entryX=0.5;entryY=0;entryDx=0;entryDy=0;" parent="1" source="RKCoc4Ff2t_dRbGgtJyt-82" target="RKCoc4Ff2t_dRbGgtJyt-41" edge="1">
          <mxGeometry relative="1" as="geometry">
            <mxPoint x="180" y="992" as="targetPoint" />
          </mxGeometry>
        </mxCell>
        <mxCell id="vegIoyeHo5Jib-Qd6CoS-23" style="edgeStyle=orthogonalEdgeStyle;rounded=0;orthogonalLoop=1;jettySize=auto;html=1;exitX=0.5;exitY=1;exitDx=0;exitDy=0;entryX=0.5;entryY=0;entryDx=0;entryDy=0;" parent="1" source="vegIoyeHo5Jib-Qd6CoS-21" target="RKCoc4Ff2t_dRbGgtJyt-54" edge="1">
          <mxGeometry relative="1" as="geometry" />
        </mxCell>
        <mxCell id="vegIoyeHo5Jib-Qd6CoS-30" style="edgeStyle=orthogonalEdgeStyle;rounded=0;orthogonalLoop=1;jettySize=auto;html=1;exitX=1;exitY=0.5;exitDx=0;exitDy=0;entryX=0.5;entryY=1;entryDx=0;entryDy=0;" parent="1" source="jaqBcTecHECJfo1LTqMZ-29" target="YIHD0tMDVWa32eO57tJM-146" edge="1">
          <mxGeometry relative="1" as="geometry" />
        </mxCell>
        <mxCell id="RHaWf_Yq4CW312gJQsgt-37" style="edgeStyle=orthogonalEdgeStyle;rounded=0;orthogonalLoop=1;jettySize=auto;html=1;entryX=0;entryY=0.5;entryDx=0;entryDy=0;" edge="1" parent="1" source="RHaWf_Yq4CW312gJQsgt-25" target="RHaWf_Yq4CW312gJQsgt-32">
          <mxGeometry relative="1" as="geometry" />
        </mxCell>
        <mxCell id="YIHD0tMDVWa32eO57tJM-153" style="edgeStyle=orthogonalEdgeStyle;rounded=0;orthogonalLoop=1;jettySize=auto;html=1;exitX=0.5;exitY=1;exitDx=0;exitDy=0;entryX=0;entryY=0.5;entryDx=0;entryDy=0;" parent="1" source="YIHD0tMDVWa32eO57tJM-129" target="YIHD0tMDVWa32eO57tJM-126" edge="1">
          <mxGeometry relative="1" as="geometry" />
        </mxCell>
        <mxCell id="RHaWf_Yq4CW312gJQsgt-42" style="edgeStyle=orthogonalEdgeStyle;rounded=0;orthogonalLoop=1;jettySize=auto;html=1;" edge="1" parent="1" source="RHaWf_Yq4CW312gJQsgt-38" target="RHaWf_Yq4CW312gJQsgt-39">
          <mxGeometry relative="1" as="geometry" />
        </mxCell>
        <mxCell id="RHaWf_Yq4CW312gJQsgt-43" style="edgeStyle=orthogonalEdgeStyle;rounded=0;orthogonalLoop=1;jettySize=auto;html=1;entryX=1;entryY=0.5;entryDx=0;entryDy=0;" edge="1" parent="1" source="RHaWf_Yq4CW312gJQsgt-39" target="YIHD0tMDVWa32eO57tJM-129">
          <mxGeometry relative="1" as="geometry" />
        </mxCell>
      </root>
    </mxGraphModel>
  </diagram>
</mxfile>
